<?xml version="1.0" encoding="UTF-8" standalone="no"?><!DOCTYPE svg PUBLIC "-//W3C//DTD SVG 1.1//EN" "http://www.w3.org/Graphics/SVG/1.1/DTD/svg11.dtd"><svg width="100%" height="100%" viewBox="0 0 865 850" version="1.1" xmlns="http://www.w3.org/2000/svg" xmlns:xlink="http://www.w3.org/1999/xlink" xml:space="preserve" xmlns:serif="http://www.serif.com/" style="fill-rule:evenodd;clip-rule:evenodd;stroke-linecap:round;stroke-linejoin:round;stroke-miterlimit:1.5;"><g><path d="M265.398,449.241l167.033,-192.873l-83.337,-48.115l166.943,-96.489l167.034,-96.436l167.033,96.436l-0,482.183l-333.977,192.925l-250.55,-144.655l-0.179,-192.976Z" style="fill:#fff;stroke:#000;stroke-width:29.17px;"/><path d="M516.082,593.973l-0.045,192.848l-250.46,-144.604l-0.179,-192.976l83.606,48.27l0.09,-289.258l83.516,48.218l-0.179,289.206l83.651,48.296Z" style="fill:#e8e9ea;stroke:#000;stroke-width:29.17px;"/><path d="M432.521,642.166l-167.033,-96.437l-0,96.437l250.549,144.655l334.156,-192.822l-0.089,-482.235l-166.944,-96.385l-334.066,192.874l83.427,48.166l167.033,-96.436" style="fill:none;stroke:#000;stroke-width:29.17px;"/><path d="M432.61,256.471l0,96.437l83.517,-48.219l-0,-96.436l-83.517,48.218Z" style="fill:#bdbfc1;stroke:#000;stroke-width:29.17px;"/><path d="M265.398,449.241l83.517,-48.219l83.516,48.219l-83.427,48.27l-83.606,-48.27Z" style="fill:#fff;stroke:#000;stroke-width:29.17px;"/><path d="M98.365,834.987l-83.516,-48.218l-0,-96.437l83.427,48.167l0.089,96.488Z" style="fill:#e8e9ea;stroke:#000;stroke-width:29.17px;"/><path d="M515.948,497.459l-417.583,241.092l-83.516,-48.219l417.761,-240.988" style="fill:#fff;stroke:#000;stroke-width:29.17px;"/><path d="M516.127,208.253l-0,96.436l-501.278,-0.103l83.516,48.218l501.1,0" style="fill:#fff;stroke:#000;stroke-width:29.17px;"/><path d="M98.365,449.241l-83.516,-48.219l-0,-96.436l83.427,48.167l0.089,96.488Z" style="fill:#e8e9ea;stroke:#000;stroke-width:29.17px;"/><path d="M599.465,352.804l83.516,-48.218l167.167,-96.359l-0.044,385.72l-333.977,192.925l-0.179,-192.976l-417.583,241.091l-0.089,-96.488l417.851,-240.937l-0,-48.218l-417.762,-0.103l-0.179,-96.54l501.279,0.103Z" style="fill:#bdbfc1;stroke:#000;stroke-width:29.17px;"/></g></svg>