<?xml version="1.0" encoding="UTF-8" standalone="no"?><!DOCTYPE svg PUBLIC "-//W3C//DTD SVG 1.1//EN" "http://www.w3.org/Graphics/SVG/1.1/DTD/svg11.dtd"><svg width="100%" height="100%" viewBox="0 0 615 802" version="1.1" xmlns="http://www.w3.org/2000/svg" xmlns:xlink="http://www.w3.org/1999/xlink" xml:space="preserve" xmlns:serif="http://www.serif.com/" style="fill-rule:evenodd;clip-rule:evenodd;stroke-linecap:round;stroke-linejoin:round;stroke-miterlimit:1.5;"><g><path d="M182.024,63.661l83.517,48.218l167.033,-96.436l167.033,96.436l-0,482.183l-333.977,192.925l-250.55,-144.655l-0.089,-385.798l0.089,-96.385l166.944,-96.488Z" style="fill:#fff;stroke:#000;stroke-width:29.17px;"/><path d="M265.63,786.987l-0.089,-385.798l334.11,-192.847l-0.044,385.72l-333.977,192.925Z" style="fill:#bdbfc1;stroke:#000;stroke-width:29.17px;"/><path d="M15.08,256.586l250.461,144.603l-0,385.747l-250.461,-144.604l0,-385.746Z" style="fill:#e8e9ea;stroke:#000;stroke-width:29.17px;"/><path d="M182.024,642.281l-167.033,-96.437l-0,96.437l250.55,144.655l334.155,-192.822l-0.089,-482.235l-166.944,-96.385l-334.066,192.874l83.427,48.166l167.033,-96.436" style="fill:none;stroke:#000;stroke-width:29.17px;"/><path d="M182.024,449.407l-167.033,-96.436l-0,-96.437l167.033,96.437" style="fill:none;stroke:#000;stroke-width:29.17px;"/><path d="M182.024,545.844l-167.033,-96.437l-0,-96.436l167.033,96.436" style="fill:none;stroke:#000;stroke-width:29.17px;"/><path d="M182.024,642.281l-167.033,-96.437l-0,-96.437l167.033,96.437" style="fill:none;stroke:#000;stroke-width:29.17px;"/></g></svg>