<?xml version="1.0" encoding="UTF-8" standalone="no"?>
<!DOCTYPE svg PUBLIC "-//W3C//DTD SVG 1.1//EN" "http://www.w3.org/Graphics/SVG/1.1/DTD/svg11.dtd">
<svg width="100%" height="100%" viewBox="0 0 2842 850" version="1.1" xmlns="http://www.w3.org/2000/svg" xmlns:xlink="http://www.w3.org/1999/xlink" xml:space="preserve" xmlns:serif="http://www.serif.com/" style="fill-rule:evenodd;clip-rule:evenodd;stroke-linecap:round;stroke-linejoin:round;stroke-miterlimit:1.5;">
    <g transform="matrix(1,0,0,1,-333,-815)">
        <g transform="matrix(-1,0,0,1,3341,0)">
            <g transform="matrix(1,0,0,1,-1321.82,-230.475)">
                <path d="M1753.76,1494.72L1920.79,1301.84L1837.45,1253.73L2004.4,1157.24L2171.43,1060.8L2338.46,1157.24L2338.46,1639.42L2004.49,1832.35L1753.94,1687.69L1753.76,1494.72Z" style="fill:white;stroke:black;stroke-width:29.17px;"/>
                <path d="M2004.44,1639.45L2004.4,1832.3L1753.94,1687.69L1753.76,1494.72L1837.36,1542.99L1837.45,1253.73L1920.97,1301.95L1920.79,1591.15L2004.44,1639.45Z" style="fill:rgb(232,233,234);stroke:black;stroke-width:29.17px;"/>
                <path d="M1920.88,1687.64L1753.85,1591.2L1753.85,1687.64L2004.4,1832.3L2338.55,1639.47L2338.46,1157.24L2171.52,1060.85L1837.45,1253.73L1920.88,1301.89L2087.91,1205.46" style="fill:none;stroke:black;stroke-width:29.17px;"/>
                <g transform="matrix(1,0,0,1,1085.8,916.199)">
                    <path d="M835.165,385.746L835.165,482.183L918.682,433.965L918.682,337.528L835.165,385.746Z" style="fill:rgb(189,191,193);stroke:black;stroke-width:29.17px;"/>
                </g>
                <g transform="matrix(1,0,0,1,417.493,-48.27)">
                    <path d="M1336.27,1542.99L1419.78,1494.77L1503.3,1542.99L1419.87,1591.26L1336.27,1542.99Z" style="fill:white;stroke:black;stroke-width:29.17px;"/>
                </g>
                <g transform="matrix(1,0,0,1,417.493,337.476)">
                    <path d="M1169.23,1542.99L1085.71,1494.77L1085.71,1398.33L1169.14,1446.5L1169.23,1542.99Z" style="fill:rgb(232,233,234);stroke:black;stroke-width:29.17px;"/>
                </g>
                <g transform="matrix(1,0,0,1,417.493,-48.27)">
                    <path d="M1586.81,1591.2L1169.23,1832.3L1085.71,1784.08L1503.48,1543.09" style="fill:white;stroke:black;stroke-width:29.17px;"/>
                </g>
                <g transform="matrix(1,0,0,1,417.493,-48.27)">
                    <path d="M1586.99,1302L1586.99,1398.43L1085.71,1398.33L1169.23,1446.55L1670.33,1446.55" style="fill:white;stroke:black;stroke-width:29.17px;"/>
                </g>
                <g transform="matrix(1,0,0,1,417.493,-48.27)">
                    <path d="M1169.23,1542.99L1085.71,1494.77L1085.71,1398.33L1169.14,1446.5L1169.23,1542.99Z" style="fill:rgb(232,233,234);stroke:black;stroke-width:29.17px;"/>
                </g>
                <path d="M2087.82,1398.28L2171.34,1350.06L2338.51,1253.7L2338.46,1639.42L2004.49,1832.35L2004.31,1639.37L1586.73,1880.46L1586.63,1783.97L2004.49,1543.04L2004.49,1494.82L1586.73,1494.72L1586.55,1398.18L2087.82,1398.28Z" style="fill:rgb(189,191,193);stroke:black;stroke-width:29.17px;"/>
            </g>
            <g transform="matrix(1,0,0,1,0.386499,203.412)">
                <g transform="matrix(1,0,0,1,83.3376,-48.3216)">
                    <path d="M1419.78,916.148L1419.78,1012.58L1503.3,1060.8L1503.3,964.366L1419.78,916.148" style="fill:rgb(232,233,234);stroke:black;stroke-width:29.17px;"/>
                </g>
                <g transform="matrix(1,0,0,1,83.3376,-48.3216)">
                    <path d="M1169.23,1157.24L1169.23,1253.68L1252.75,1301.89L1252.75,1205.46L1169.23,1157.24" style="fill:rgb(232,233,234);stroke:black;stroke-width:29.17px;"/>
                </g>
                <g transform="matrix(1,0,0,1,83.4271,48.1666)">
                    <path d="M1169.23,1157.24L1169.23,1253.68L1252.75,1301.89L1252.75,1205.46L1169.23,1157.24" style="fill:rgb(232,233,234);stroke:black;stroke-width:29.17px;"/>
                </g>
                <g transform="matrix(1,0,0,1,250.46,48.1666)">
                    <path d="M1169.23,1157.24L1169.23,1253.68L1252.75,1301.89L1252.75,1205.46L1169.23,1157.24" style="fill:rgb(232,233,234);stroke:black;stroke-width:29.17px;"/>
                </g>
                <g transform="matrix(1,0,0,1,417.493,48.1666)">
                    <path d="M1169.23,1157.24L1169.23,1253.68L1252.75,1301.89L1252.75,1205.46L1169.23,1157.24" style="fill:rgb(232,233,234);stroke:black;stroke-width:29.17px;"/>
                </g>
                <g transform="matrix(-1,0,0,1,2756.23,48.3216)">
                    <path d="M1169.23,1157.24L1169.23,1253.68L1252.75,1301.89L1252.75,1205.46L1169.23,1157.24" style="fill:rgb(189,191,193);stroke:black;stroke-width:29.17px;"/>
                </g>
                <g transform="matrix(-1,0,0,1,2589.1,48.27)">
                    <path d="M1169.23,1157.24L1169.23,1253.68L1252.75,1301.89L1252.75,1205.46L1169.23,1157.24" style="fill:rgb(189,191,193);stroke:black;stroke-width:29.17px;"/>
                </g>
                <g transform="matrix(-1,0,0,1,2839.56,96.4366)">
                    <path d="M668.132,867.929L668.132,964.366L1169.14,1253.73L1169.14,1157.29L668.132,867.929" style="fill:rgb(189,191,193);stroke:black;stroke-width:29.17px;"/>
                </g>
                <path d="M1753.85,723.275L1503.3,867.929L1586.81,916.148L1753.85,819.711L1252.84,1109.07L1336.35,1157.29L1670.33,964.366L1252.84,1205.51L1336.44,1253.78L1753.85,1012.58L1419.96,1205.56L1503.39,1253.73L1920.88,1012.58L1586.9,1205.51L1670.42,1253.73L2171.43,964.366L2171.43,867.929L1920.88,723.275L1753.85,723.275Z" style="fill:white;stroke:black;stroke-width:29.17px;"/>
            </g>
            <g transform="matrix(1,0,0,1,654.19,-206.417)">
                <path d="M1920.88,1109.02L2004.4,1157.24L2171.43,1060.8L2338.46,1157.24L2338.46,1639.42L2004.49,1832.35L1753.94,1687.69L1753.85,1301.89L1753.94,1205.51L1920.88,1109.02Z" style="fill:white;stroke:black;stroke-width:29.17px;"/>
                <path d="M2004.49,1832.35L2004.4,1446.55L2338.51,1253.7L2338.46,1639.42L2004.49,1832.35Z" style="fill:rgb(189,191,193);stroke:black;stroke-width:29.17px;"/>
                <path d="M1753.94,1301.95L2004.4,1446.55L2004.4,1832.3L1753.94,1687.69L1753.94,1301.95Z" style="fill:rgb(232,233,234);stroke:black;stroke-width:29.17px;"/>
                <path d="M1920.88,1687.64L1753.85,1591.2L1753.85,1687.64L2004.4,1832.3L2338.55,1639.47L2338.46,1157.24L2171.52,1060.85L1837.45,1253.73L1920.88,1301.89L2087.91,1205.46" style="fill:none;stroke:black;stroke-width:29.17px;"/>
                <path d="M1920.88,1494.77L1753.85,1398.33L1753.85,1301.89L1920.88,1398.33" style="fill:none;stroke:black;stroke-width:29.17px;"/>
                <g transform="matrix(1,0,0,1,0,96.4366)">
                    <path d="M1920.88,1494.77L1753.85,1398.33L1753.85,1301.89L1920.88,1398.33" style="fill:none;stroke:black;stroke-width:29.17px;"/>
                </g>
                <g transform="matrix(1,0,0,1,0,192.873)">
                    <path d="M1920.88,1494.77L1753.85,1398.33L1753.85,1301.89L1920.88,1398.33" style="fill:none;stroke:black;stroke-width:29.17px;"/>
                </g>
            </g>
        </g>
    </g>
</svg>
