<?xml version="1.0" encoding="UTF-8" standalone="no"?><!DOCTYPE svg PUBLIC "-//W3C//DTD SVG 1.1//EN" "http://www.w3.org/Graphics/SVG/1.1/DTD/svg11.dtd"><svg width="100%" height="100%" viewBox="0 0 949 657" version="1.1" xmlns="http://www.w3.org/2000/svg" xmlns:xlink="http://www.w3.org/1999/xlink" xml:space="preserve" xmlns:serif="http://www.serif.com/" style="fill-rule:evenodd;clip-rule:evenodd;stroke-linecap:round;stroke-linejoin:round;stroke-miterlimit:1.5;"><g><path d="M266.044,159.994l-0,96.437l83.516,48.218l0,-96.436l-83.516,-48.219" style="fill:#e8e9ea;stroke:#000;stroke-width:29.17px;"/><path d="M15.494,401.086l-0,96.436l83.517,48.219l-0,-96.437l-83.517,-48.218" style="fill:#e8e9ea;stroke:#000;stroke-width:29.17px;"/><path d="M15.583,497.574l0,96.437l83.517,48.218l-0,-96.437l-83.517,-48.218" style="fill:#e8e9ea;stroke:#000;stroke-width:29.17px;"/><path d="M182.617,497.574l-0,96.437l83.516,48.218l0,-96.437l-83.516,-48.218" style="fill:#e8e9ea;stroke:#000;stroke-width:29.17px;"/><path d="M349.65,497.574l-0,96.437l83.516,48.218l0,-96.437l-83.516,-48.218" style="fill:#e8e9ea;stroke:#000;stroke-width:29.17px;"/><path d="M349.918,497.729l0,96.437l-83.516,48.218l-0,-96.437l83.516,-48.218" style="fill:#bdbfc1;stroke:#000;stroke-width:29.17px;"/><path d="M182.795,497.677l0,96.437l-83.516,48.218l-0,-96.436l83.516,-48.219" style="fill:#bdbfc1;stroke:#000;stroke-width:29.17px;"/><path d="M934.355,256.534l-0,96.437l-501.01,289.361l0,-96.436l501.01,-289.362" style="fill:#bdbfc1;stroke:#000;stroke-width:29.17px;"/><path d="M516.772,15.443l-250.549,144.655l83.516,48.218l167.033,-96.437l-501.01,289.362l83.517,48.218l333.977,-192.925l-417.494,241.143l83.606,48.27l417.404,-241.194l-333.887,192.976l83.427,48.167l417.493,-241.143l-333.976,192.924l83.516,48.219l501.01,-289.362l-0,-96.436l-250.55,-144.655l-167.033,-0Z" style="fill:#fff;stroke:#000;stroke-width:29.17px;"/></g></svg>